<?xml version="1.0" encoding="UTF-8"?>
<svg version="1.1" xmlns="http://www.w3.org/2000/svg" width="512" height="512">
<path d="M0 0 C1.42722337 0.7522561 2.85896611 1.49599523 4.29492188 2.23144531 C30.53173963 15.68283787 67.00731278 35.35010299 86.12792969 58.12158203 C87.13937732 62.02288004 87.53202204 64.21237424 85.87792969 67.93408203 C83.40669209 71.02312903 81.78133982 72.04484703 77.83496094 72.50830078 C73.49843417 72.05591285 71.12965843 70.55424439 67.81542969 67.93408203 C66.57341435 67.00286278 65.33121827 66.07188456 64.08886719 65.14111328 C63.44014648 64.64562988 62.79142578 64.15014648 62.12304688 63.63964844 C10.07699568 22.44621031 10.07699568 22.44621031 -51.55175781 3.75830078 C-52.31746094 3.87818359 -53.08316406 3.99806641 -53.87207031 4.12158203 C-57.02765836 8.8549641 -56.28107003 12.90365068 -55.29003906 18.27783203 C-47.55804517 50.75926758 -26.23042234 80.55046926 -6.87207031 107.12158203 C-6.30456055 107.90162598 -5.73705078 108.68166992 -5.15234375 109.48535156 C4.66179954 122.94696864 14.68455873 136.20150528 25.23266602 149.09741211 C28.84368097 153.51714119 32.37885557 157.98795726 35.87792969 162.49658203 C39.71342954 167.42548454 43.72874781 172.10935163 47.95996094 176.70751953 C50.21345961 179.21682075 52.32954115 181.80399829 54.44042969 184.43408203 C58.85164368 189.88822753 63.56806615 195.00417339 68.35058594 200.12939453 C70.50870688 202.44398465 72.61966778 204.7905395 74.69042969 207.18408203 C78.89994076 212.04433878 83.26600517 216.76073517 87.62353516 221.48779297 C89.1706452 223.16797155 90.71397394 224.85156494 92.25683594 226.53564453 C96.89735722 231.59264139 101.54773849 236.61407256 106.45469666 241.41590881 C108.10313916 243.09631087 109.622734 244.8368013 111.14575195 246.63110352 C115.86108969 252.04717878 120.94966815 257.08779465 126.03027344 262.15673828 C127.07742105 263.20456149 128.12442035 264.25253293 129.17127991 265.30064392 C131.35402295 267.48485191 133.53853994 269.66726535 135.72436523 271.84838867 C138.50579393 274.62412084 141.28270745 277.40431985 144.05829525 280.18589115 C146.2159399 282.34717406 148.37599116 284.50603918 150.53674507 286.66421318 C151.56078739 287.68759524 152.58410643 288.71170164 153.60664177 289.73658943 C158.76892268 294.90814224 163.95944859 299.99673015 169.52479553 304.7386322 C171.67335882 306.59209856 173.65288365 308.58576534 175.62792969 310.62158203 C178.87049228 313.90261571 182.1983999 316.976182 185.69824219 319.97705078 C189.07337899 322.95607024 192.34542534 326.04120135 195.62792969 329.12158203 C200.71499123 333.88702995 205.82445375 338.59659798 211.12792969 343.12158203 C212.16070025 344.00804631 213.19322897 344.89479238 214.22558594 345.78173828 C216.6167586 347.83493243 219.01022573 349.88540975 221.40527344 351.93408203 C223.85956673 354.03390204 226.30997348 356.1381084 228.75683594 358.24658203 C234.84010349 363.4850437 240.95005462 368.67851229 247.18652344 373.73486328 C249.35395164 375.49356001 251.51154548 377.26164145 253.66308594 379.03955078 C263.43134641 387.08444039 273.45845994 394.73712317 283.62841797 402.26611328 C286.01994271 404.04141979 288.4012355 405.82959257 290.78027344 407.62158203 C309.44751394 421.62101968 328.89667404 434.49411376 349.12792969 446.12158203 C349.78519043 446.5025 350.44245117 446.88341797 351.11962891 447.27587891 C358.676653 451.61886079 366.42589866 455.21993827 374.50292969 458.49658203 C375.32341797 458.83077148 376.14390625 459.16496094 376.98925781 459.50927734 C384.84855504 462.5989039 392.628733 464.8542714 401.12792969 464.12158203 C403.15911342 462.61457475 403.99323224 461.67271907 404.59667969 459.20361328 C405.14566552 419.3335171 365.87628169 373.96209714 343.10449219 344.15283203 C342.63261475 343.5233667 342.1607373 342.89390137 341.67456055 342.24536133 C340.80396489 341.08514053 339.92040295 339.93446968 339.02075195 338.79663086 C337.06564603 336.1697011 336.12792147 334.12153609 335.54980469 330.89111328 C336.3736511 325.51941203 338.70292513 321.28694332 341.19042969 316.49658203 C359.20389971 280.17490764 365.25940077 237.99460261 357.12792969 198.12158203 C356.96164062 197.30077148 356.79535156 196.47996094 356.62402344 195.63427734 C349.15417255 160.15248561 331.72242937 129.49706273 307.12792969 103.12158203 C306.09925781 102.01169922 306.09925781 102.01169922 305.04980469 100.87939453 C277.65764052 72.37125331 238.04569671 54.11527218 199.12792969 49.12158203 C198.49943115 49.03021973 197.87093262 48.93885742 197.22338867 48.84472656 C189.62166758 47.83976237 181.97000515 47.87986318 174.31542969 47.87158203 C173.2180246 47.86957291 173.2180246 47.86957291 172.09844971 47.86752319 C158.68439377 47.87283794 145.91550904 49.10054583 132.83496094 52.09423828 C132.15385254 52.24530029 131.47274414 52.3963623 130.77099609 52.55200195 C128.97062824 52.96129906 127.1795007 53.41069404 125.38964844 53.86376953 C121.04159442 54.20744805 118.9645569 53.14607536 115.12792969 51.12158203 C112.8874713 48.60106635 113.00409075 46.36147519 113.19042969 43.12158203 C113.42165408 40.23409694 114.03644942 39.22377966 115.99511719 37.03564453 C120.49666553 34.28532198 125.04800516 33.48376914 130.19042969 32.49658203 C131.2595459 32.28493408 132.32866211 32.07328613 133.43017578 31.85522461 C181.30310162 22.70796201 230.19855901 30.00841805 273.12792969 53.12158203 C274.29453125 53.73517578 275.46113281 54.34876953 276.66308594 54.98095703 C299.15056375 67.25146352 319.32350056 85.07954037 335.12792969 105.12158203 C335.94390625 106.13220703 336.75988281 107.14283203 337.60058594 108.18408203 C371.11801403 150.15390047 384.53500653 205.40311301 378.87402344 258.32080078 C375.83624816 283.48789554 367.96729548 307.28972642 357.12792969 330.12158203 C357.83175781 331.04455078 358.53558594 331.96751953 359.26074219 332.91845703 C372.04808412 349.77429907 384.12145671 367.04735672 395.12792969 385.12158203 C395.5876416 385.87197754 396.04735352 386.62237305 396.52099609 387.39550781 C428.22089845 439.47150916 428.22089845 439.47150916 423.66699219 464.67236328 C421.88919396 471.56394581 419.07209707 476.1678389 413.37011719 480.43798828 C404.06343138 485.6752801 390.76894611 484.06022401 380.81542969 481.68408203 C354.0556597 473.51381183 330.14904034 458.64927319 307.12792969 443.12158203 C306.38317383 442.62271484 305.63841797 442.12384766 304.87109375 441.60986328 C289.17305271 431.0805995 274.02911886 419.74488635 259.12792969 408.12158203 C258.5892627 407.70376465 258.0505957 407.28594727 257.49560547 406.85546875 C249.48601978 400.64238204 241.61388517 394.27694902 233.8125 387.80419922 C233.13026367 387.23862305 232.44802734 386.67304688 231.74511719 386.09033203 C231.14296387 385.58953125 230.54081055 385.08873047 229.92041016 384.57275391 C226.40126058 381.30442138 226.40126058 381.30442138 222.04199219 380.16064453 C221.28660156 380.35400391 220.53121094 380.54736328 219.75292969 380.74658203 C218.86863281 380.95541016 217.98433594 381.16423828 217.07324219 381.37939453 C216.10128906 381.62431641 215.12933594 381.86923828 214.12792969 382.12158203 C170.8861284 392.36589904 129.3471438 385.770922 91.12792969 363.12158203 C86.87468743 360.42763902 82.98195558 357.35725799 79.12792969 354.12158203 C77.96788407 353.17483188 76.80772149 352.22822502 75.64746094 351.28173828 C44.57289209 325.61380207 25.8732066 289.3731741 21.69042969 249.43408203 C21.58496826 248.50104248 21.47950684 247.56800293 21.37084961 246.60668945 C20.89449825 241.25685987 20.96213586 237.73038886 24.12792969 233.12158203 C27.0570222 231.3007948 28.74635368 231.1060075 32.19042969 231.24658203 C35.55976643 232.25021425 36.92313788 233.42683648 39.12792969 236.12158203 C40.27795058 238.42162382 40.43582916 240.15850721 40.70605469 242.71533203 C44.4042656 275.48738664 55.68838224 302.72154462 78.12792969 327.12158203 C78.74152344 327.80607422 79.35511719 328.49056641 79.98730469 329.19580078 C100.7696617 351.26419473 133.74442143 365.89164684 163.90551758 367.24633789 C177.96127493 367.60651176 191.37164302 367.1074427 205.12792969 364.12158203 C201.00183232 359.87943818 196.75843477 355.8566632 192.28027344 351.98876953 C176.55951681 338.35079917 160.82549793 324.24836703 146.35058594 309.28173828 C144.44580602 307.43051984 142.50075855 305.70619434 140.48730469 303.9765625 C136.20624921 300.2401286 132.16610937 296.30450567 128.15527344 292.28173828 C127.06515709 291.19305702 127.06515709 291.19305702 125.95301819 290.0823822 C124.42830673 288.55834647 122.90483818 287.03306634 121.38256836 285.5065918 C119.07159077 283.1902574 116.75532198 280.87931126 114.43847656 278.56884766 C112.94792148 277.07763169 111.45767668 275.5861055 109.96777344 274.09423828 C109.28529037 273.41377945 108.60280731 272.73332062 107.89964294 272.03224182 C104.00015386 268.11396811 100.27945591 264.09487954 96.68263245 259.89646912 C94.29511891 257.17082467 91.72323898 254.64749803 89.12792969 252.12158203 C85.21041623 248.30881493 81.55221029 244.3578795 77.97558594 240.22314453 C74.78942591 236.5991401 71.45254766 233.118163 68.12792969 229.62158203 C62.99847891 224.22681484 57.98428453 218.76399551 53.12792969 213.12158203 C52.64549805 212.56132324 52.16306641 212.00106445 51.66601562 211.42382812 C50.27573467 209.80443903 48.88888445 208.18217459 47.50292969 206.55908203 C43.75376569 202.1754166 39.99112313 197.80411325 36.20800781 193.44970703 C17.90730889 172.38540672 17.90730889 172.38540672 9.65478516 161.43774414 C8.52408625 159.9634592 7.33129279 158.53717849 6.12792969 157.12158203 C5.46792969 157.12158203 4.80792969 157.12158203 4.12792969 157.12158203 C-15.520728 205.42666816 -18.03293378 257.22883549 2.19384766 305.96337891 C4.88048333 312.17086959 7.9216259 318.16901611 11.12792969 324.12158203 C11.60915283 325.03182129 11.60915283 325.03182129 12.10009766 325.96044922 C18.62004518 338.23212292 26.70078351 348.71610307 36.10839844 358.91455078 C37.86697876 360.83640355 39.53612744 362.79805692 41.19042969 364.80908203 C44.49762434 368.67195709 48.20713543 371.89417583 52.12792969 375.12158203 C53.11535156 375.94658203 54.10277344 376.77158203 55.12011719 377.62158203 C90.21876438 406.40995158 133.80003829 420.94719752 178.97998047 419.95019531 C181.02413812 419.90767836 183.06782448 419.88439453 185.11230469 419.86376953 C186.3159668 419.84169434 187.51962891 419.81961914 188.75976562 419.796875 C192.5385956 420.16117218 194.90691898 421.14330013 198.12792969 423.12158203 C199.94871692 426.05067454 200.14350422 427.74000602 200.00292969 431.18408203 C198.99929747 434.55341878 197.82267523 435.91679022 195.12792969 438.12158203 C191.97827879 439.69640748 188.59906194 439.30509042 185.13964844 439.32470703 C183.93046501 439.33529648 183.93046501 439.33529648 182.69685364 439.34609985 C148.60094279 439.57623872 148.60094279 439.57623872 133.12792969 436.12158203 C132.21769043 435.92290527 131.30745117 435.72422852 130.36962891 435.51953125 C93.90816138 427.32904511 59.52422483 409.60152339 32.60644531 383.54882812 C31.0694856 382.06516457 29.51291203 380.60385926 27.95605469 379.14111328 C14.75637911 366.54754525 4.26387926 351.86020902 -4.87207031 336.12158203 C-5.25314941 335.47318359 -5.63422852 334.82478516 -6.02685547 334.15673828 C-19.7690144 310.50172247 -28.8851596 282.46496137 -30.87207031 255.12158203 C-30.97044189 253.80915527 -30.97044189 253.80915527 -31.07080078 252.47021484 C-33.3757575 219.25009522 -30.58158357 180.90672995 -14.22753906 151.10986328 C-10.70342175 144.92301536 -10.70342175 144.92301536 -8.87207031 138.12158203 C-10.69151093 133.0718172 -13.6059366 129.79726532 -17.24609375 125.93164062 C-20.05663542 122.80290851 -22.36699571 119.3316772 -24.74707031 115.87158203 C-25.76090216 114.43113211 -26.77523083 112.99103175 -27.79003906 111.55126953 C-36.29616519 99.3718592 -44.48879086 87.01653118 -51.87207031 74.12158203 C-52.3414502 73.30705566 -52.81083008 72.4925293 -53.29443359 71.65332031 C-80.48455749 24.16892844 -80.48455749 24.16892844 -74.72753906 0.40673828 C-72.33519802 -5.98376176 -67.89960239 -10.74410129 -61.87207031 -13.87841797 C-40.99958213 -20.83591403 -18.28895265 -9.66750779 0 0 Z " fill="#FFFFFF" transform="translate(79.8720703125,28.87841796875)"/>
<path d="M0 0 C1.16273438 0.5671875 2.32546875 1.134375 3.5234375 1.71875 C17.37766665 8.83036399 28.86211505 18.23132671 40 29 C40.99773437 29.92039062 40.99773437 29.92039062 42.015625 30.859375 C68.40460166 55.76859596 83.11234863 95.25184116 84.203125 130.953125 C84.7467365 167.48175336 74.72709274 206.47704933 49.296875 233.83203125 C43.81882074 239.09249924 37.05146151 241.02219086 29.5625 241.4375 C19.39922182 240.88701376 11.5312479 235.74998345 3.8125 229.5625 C2.45729248 228.50276978 2.45729248 228.50276978 1.07470703 227.42163086 C-1.63060349 225.29773527 -4.31802362 223.15325688 -7 221 C-7.7719873 220.38253906 -8.54397461 219.76507813 -9.33935547 219.12890625 C-13.34230798 215.92011236 -17.31941162 212.6814974 -21.27783203 209.41796875 C-22.90866627 208.07520078 -24.54473671 206.73920769 -26.18359375 205.40625 C-28.01191871 203.91779006 -29.8365834 202.42481382 -31.65625 200.92578125 C-33.14572906 199.70192596 -34.64477525 198.48955293 -36.15625 197.29296875 C-39.55691115 194.54038442 -42.10437429 192.47812853 -43 188 C-42.85914846 184.54913726 -42.34433156 182.54519164 -40.5 179.625 C-37.35485588 177.58065632 -35.27368019 177.12210782 -31.54296875 177.3046875 C-26.03014096 178.81203519 -22.12078595 183.22898899 -18 187 C-15.89134507 188.83193555 -13.7592515 190.63549851 -11.625 192.4375 C-10.8062439 193.13335205 -10.8062439 193.13335205 -9.97094727 193.84326172 C-4.14251534 198.77547273 1.90368445 203.40562771 8 208 C8.6919043 208.52368164 9.38380859 209.04736328 10.09667969 209.58691406 C12.29170947 211.24799144 14.48904739 212.90595597 16.6875 214.5625 C17.38335205 215.0877124 18.0792041 215.6129248 18.79614258 216.15405273 C19.44478271 216.64075439 20.09342285 217.12745605 20.76171875 217.62890625 C21.33881592 218.06275635 21.91591309 218.49660645 22.51049805 218.94360352 C25.54278586 221.09418692 28.15532542 221.25319607 31.83203125 221.5234375 C38.43244979 219.92982293 42.32604595 211.39344016 45.6640625 205.98828125 C63.34893669 176.30138946 69.29465465 139.55657103 61.3203125 105.81640625 C55.09306343 82.17486081 43.80170577 61.75858683 27 44 C26.24074219 43.17628906 25.48148438 42.35257813 24.69921875 41.50390625 C8.14449627 24.1363496 -13.95460874 12.95295528 -37 7 C-38.19367188 6.66226563 -39.38734375 6.32453125 -40.6171875 5.9765625 C-60.74360117 1.17617062 -85.21982677 2.2289274 -105 8 C-105.71575195 8.20367187 -106.43150391 8.40734375 -107.16894531 8.6171875 C-123.04032793 13.285665 -139.44379738 21.10014751 -152 32 C-153.61360988 35.22721976 -153.4931952 38.50338279 -153 42 C-151.64379664 44.52412685 -150.43680463 46.42482695 -148.6875 48.625 C-148.01352173 49.51723267 -148.01352173 49.51723267 -147.32592773 50.42749023 C-145.90261328 52.30022059 -144.45303955 54.15027773 -143 56 C-142.09006526 57.18536921 -141.18119264 58.37155458 -140.2734375 59.55859375 C-134.91858793 66.50994422 -129.32130525 73.24088841 -123.62109375 79.91015625 C-121.17696666 82.77577694 -118.80304266 85.69405522 -116.4375 88.625 C-112.55836545 93.39238003 -108.48053793 97.94202987 -104.3203125 102.46484375 C-102.42718797 104.53325758 -100.57748296 106.62405876 -98.75 108.75 C-94.68141235 113.44004256 -90.40923984 117.94226678 -86.14941406 122.45800781 C-83.26733045 125.52374572 -80.414443 128.61211696 -77.6328125 131.76953125 C-77.15086426 132.31585205 -76.66891602 132.86217285 -76.17236328 133.42504883 C-74.30559406 135.93286395 -73.93282855 137.91011321 -74 141 C-75.72678033 145.12508633 -77.87491367 147.27321967 -82 149 C-86.10024905 149.18223329 -88.43944814 147.90697041 -91.5 145.375 C-97.41148573 139.87042343 -102.81788967 133.82942519 -108.2734375 127.87939453 C-109.85193435 126.16117214 -111.43929359 124.45183694 -113.03125 122.74609375 C-118.18311062 117.20799932 -123.08650725 111.53011244 -127.828125 105.63671875 C-129.93756349 103.07579972 -132.12887648 100.62876545 -134.375 98.1875 C-139.36607371 92.69645691 -143.90097133 86.88459839 -148.43310547 81.01708984 C-150.13156305 78.83063666 -151.8477089 76.65885566 -153.56640625 74.48828125 C-174.27841977 48.25580926 -174.27841977 48.25580926 -173 33 C-171.56329514 23.56772027 -165.17443402 17.10299528 -157.8125 11.49609375 C-112.0801427 -21.39572815 -49.95942274 -24.60434974 0 0 Z " fill="#FFFFFF" transform="translate(323,126)"/>
<path d="M0 0 C3.67259954 2.96223213 5.44823012 6.48813162 7.25 10.75 C7.54156982 11.42885254 7.83313965 12.10770508 8.13354492 12.80712891 C10.81363304 19.22830598 13.092107 25.78301749 15.3125 32.375 C15.64991211 33.37241211 15.98732422 34.36982422 16.33496094 35.39746094 C21.73613223 51.83034711 21.73613223 51.83034711 19.8125 57.5 C18 60 18 60 15 62 C11.08744714 62.4347281 8.82933602 62.51163884 5.44116211 60.42138672 C2.51807294 57.52197694 1.4635082 54.72986725 0.31640625 50.8828125 C-0.01787132 49.84240311 -0.01787132 49.84240311 -0.35890198 48.78097534 C-1.06770646 46.56699795 -1.75386762 44.34686568 -2.4375 42.125 C-3.34339718 39.22871268 -4.25999539 36.33600118 -5.18359375 33.4453125 C-5.40836899 32.73609146 -5.63314423 32.02687042 -5.86473083 31.29615784 C-7.80397968 25.3075724 -10.22913947 19.62492591 -12.87695312 13.91821289 C-14.51147614 9.67094036 -14.38062751 7.3043093 -13 3 C-9.629664 -1.74910982 -5.25074073 -1.19753736 0 0 Z " fill="#FFFFFF" transform="translate(489,147)"/>
<path d="M0 0 C1.46983337 -0.00855011 1.46983337 -0.00855011 2.96936035 -0.01727295 C5.03701708 -0.02669946 7.10468867 -0.03324757 9.17236328 -0.03710938 C12.33262189 -0.04684073 15.49223689 -0.07789689 18.65234375 -0.109375 C20.66405865 -0.11590316 22.67577818 -0.12115437 24.6875 -0.125 C25.63032837 -0.1373468 26.57315674 -0.1496936 27.54455566 -0.16241455 C33.77066016 -0.14128748 37.31893964 0.67831464 41.84375 5.203125 C42.25 7.19140625 42.25 7.19140625 42.34375 9.515625 C42.3953125 10.27488281 42.446875 11.03414062 42.5 11.81640625 C41.68641963 14.77532058 40.23132271 16.23991275 37.8565979 18.13172913 C33.71228879 20.3376562 29.08273011 19.89011004 24.49609375 19.83203125 C23.40663956 19.83444321 22.31718536 19.83685516 21.19471741 19.83934021 C18.89759674 19.83836302 16.60045215 19.82500031 14.3034668 19.80004883 C10.78938817 19.76570454 7.27782011 19.77940751 3.76367188 19.79882812 C1.52863514 19.79193045 -0.70639511 19.78225879 -2.94140625 19.76953125 C-4.51499657 19.77697105 -4.51499657 19.77697105 -6.12037659 19.78456116 C-13.39386982 19.66717993 -13.39386982 19.66717993 -17.30200195 17.28833008 C-19.75279484 14.53227714 -20.18009994 12.83132725 -20.421875 9.23828125 C-19.91696258 5.36976111 -18.03607364 3.76992433 -15.15625 1.203125 C-10.30691721 -0.33226547 -5.03811384 0.02270972 0 0 Z " fill="#FFFFFF" transform="translate(241.15625,-0.203125)"/>
<path d="M0 0 C4.11900253 2.71321045 5.82609654 5.05600459 7.5 9.65625 C7.9125 10.76226562 8.325 11.86828125 8.75 13.0078125 C9.1625 14.16023438 9.575 15.31265625 10 16.5 C10.83164614 18.76103796 11.66497309 21.02145842 12.5 23.28125 C12.90476562 24.39628906 13.30953125 25.51132812 13.7265625 26.66015625 C15.36080665 30.94628738 17.23972149 35.10784649 19.1796875 39.26367188 C20.39496248 43.317482 19.65486897 46.48561552 18 50.3125 C15.26156502 52.62305451 12.8382178 52.83323467 9.3515625 53.3125 C5.74430129 52.83312974 4.51763542 51.66183436 2 49 C0.05024257 45.55312098 -1.47968749 41.96573978 -3 38.3125 C-3.43207764 37.28898437 -3.86415527 36.26546875 -4.30932617 35.2109375 C-6.86184762 29.04911514 -9.28848716 22.85675543 -11.3125 16.5 C-11.53744141 15.83782471 -11.76238281 15.17564941 -11.99414062 14.4934082 C-13.0423501 10.91616349 -13.09762998 8.51429228 -11.71875 5.12109375 C-10 2 -10 2 -8.1875 0.5625 C-5.24537045 -0.1940476 -3.03149645 -0.37120365 0 0 Z " fill="#FFFFFF" transform="translate(15,330)"/>
<path d="M0 0 C3.07303342 1.20627392 5.81186449 2.84543129 8.625 4.5625 C10.20027337 5.48442363 11.77711772 6.40366786 13.35546875 7.3203125 C14.13325684 7.77567383 14.91104492 8.23103516 15.71240234 8.70019531 C20.12041253 11.20481071 24.70185228 13.34930278 29.27734375 15.52734375 C32.97731017 17.52861684 34.62012688 18.77897925 35.875 22.8125 C36.0302769 26.77206096 35.1678379 28.71086663 33 32 C30.36447929 34.2450732 28.92546847 33.99559661 25.4296875 33.7890625 C20.44284583 33.10470466 16.29246555 31.15250496 11.8125 28.9375 C10.9882251 28.53845459 10.1639502 28.13940918 9.31469727 27.72827148 C-7.60309565 19.39690435 -7.60309565 19.39690435 -13 14 C-14.15637647 9.66358825 -14.23509439 6.93802345 -12 3 C-8.6802294 -0.70282105 -4.67297268 -0.6766873 0 0 Z " fill="#FFFFFF" transform="translate(128,472)"/>
<path d="M0 0 C3.22291569 2.73947834 3.90211554 4.3148088 4.5 8.5 C3.90373168 12.67387827 2.93386454 14.01811804 0 17 C-7.6422593 20.32148007 -17.39280128 23.10269952 -25.5 20.0625 C-27.89246054 16.77286676 -28.53395243 13.01799204 -28 9 C-25.14950902 4.09245367 -21.48481707 2.64290235 -16.25 1.125 C-15.57195312 0.90070312 -14.89390625 0.67640625 -14.1953125 0.4453125 C-9.09342547 -1.1065923 -5.22822166 -1.09949726 0 0 Z " fill="#FFFFFF" transform="translate(197,8)"/>
<path d="M0 0 C2.75 2.25 2.75 2.25 5 5 C5.61875 5.7425 6.2375 6.485 6.875 7.25 C8.53834694 11.31595919 8.15569996 14.80553651 7 19 C5.19820546 21.47746749 3.90714026 21.79997294 0.98046875 22.4453125 C-2.70013157 22.83406415 -5.04882215 22.68294217 -8.10546875 20.48828125 C-11.18201311 17.25949551 -13.33024474 14.25129269 -14.125 9.8125 C-13.99197906 5.75536129 -13.61221876 4.06260131 -11 1 C-7.43954779 -1.79749817 -4.21263041 -1.10858695 0 0 Z " fill="#FFFFFF" transform="translate(465,106)"/>
<path d="M0 0 C3.6578218 2.03993908 5.66946174 3.50419262 8 7 C8.5493667 11.86581934 8.73490373 13.8976444 6 18 C2.86987155 20.0867523 0.77654048 20.72888124 -3 20.5 C-6.5793379 19.60516552 -8.44598226 17.61631085 -11 15 C-12.59616743 11.80766515 -12.51466114 8.46538503 -12 5 C-8.53124704 0.49062115 -5.61013811 -0.53943636 0 0 Z " fill="#FFFFFF" transform="translate(96,450)"/>
<path d="M0 0 C2.69990662 1.79993774 4.5418865 3.083773 6 6 C6.49267057 10.35192338 6.51752429 12.29982008 3.875 15.875 C0.67084273 18.24329016 -1.02790584 19 -5 19 C-7.87872577 17.6260627 -9.74989437 16.25010563 -12 14 C-12.50421994 10.96295432 -12.45467228 8.04197406 -12 5 C-8.60119919 0.46826559 -5.57565504 -0.54663285 0 0 Z " fill="#FFFFFF" transform="translate(47,397)"/>
</svg>
